<svg width="22" height="24" viewBox="0 0 22 24" fill="none" xmlns="http://www.w3.org/2000/svg">
<path d="M18.101 5.76059C16.7379 5.12259 15.2767 4.65103 13.7488 4.38289C13.7352 4.38018 13.7211 4.38193 13.7085 4.38789C13.6959 4.39386 13.6854 4.40374 13.6784 4.41618C13.4913 4.75737 13.2828 5.20211 13.1367 5.55347C11.5162 5.30219 9.8687 5.30219 8.24818 5.55347C8.08543 5.16407 7.90192 4.78439 7.69847 4.41618C7.69158 4.40359 7.68114 4.39348 7.66857 4.3872C7.65599 4.38092 7.64187 4.37878 7.62809 4.38104C6.10103 4.64919 4.63991 5.12074 3.27589 5.75966C3.26416 5.76477 3.25421 5.77348 3.24738 5.78463C0.474806 10.0148 -0.285158 14.1405 0.0881421 18.2144C0.0891808 18.2244 0.0921651 18.234 0.0969132 18.2427C0.101661 18.2515 0.108074 18.2591 0.115761 18.2652C1.73404 19.488 3.53902 20.4194 5.45511 21.0206C5.46847 21.0249 5.48275 21.0249 5.4961 21.0206C5.50945 21.0163 5.52125 21.0079 5.52995 20.9966C5.94156 20.4233 6.30862 19.8177 6.62223 19.1815C6.64094 19.1445 6.62312 19.1002 6.5857 19.0854C6.01016 18.8604 5.45251 18.589 4.91788 18.2736C4.90827 18.2679 4.90018 18.2598 4.89432 18.25C4.88846 18.2403 4.88503 18.2292 4.88432 18.2178C4.88361 18.2063 4.88566 18.1948 4.89027 18.1844C4.89488 18.174 4.90192 18.1649 4.91075 18.158C5.02301 18.072 5.13526 17.9823 5.24218 17.8926C5.2518 17.8845 5.26339 17.8794 5.27566 17.8778C5.28793 17.8761 5.3004 17.8781 5.31167 17.8834C8.81035 19.5144 12.5995 19.5144 16.0572 17.8834C16.0685 17.8778 16.0811 17.8756 16.0935 17.877C16.106 17.8785 16.1178 17.8836 16.1276 17.8917C16.2345 17.9823 16.3458 18.072 16.459 18.158C16.4679 18.1647 16.4751 18.1737 16.4798 18.184C16.4846 18.1944 16.4868 18.2058 16.4863 18.2173C16.4857 18.2287 16.4825 18.2398 16.4768 18.2497C16.4711 18.2595 16.4631 18.2677 16.4536 18.2736C15.9209 18.5916 15.3667 18.8607 14.7849 19.0844C14.776 19.0878 14.7679 19.0931 14.7611 19.1C14.7543 19.1069 14.749 19.1152 14.7455 19.1244C14.742 19.1336 14.7405 19.1434 14.741 19.1533C14.7415 19.1631 14.744 19.1728 14.7484 19.1815C15.0691 19.8168 15.4362 20.4215 15.8398 20.9956C15.8482 21.0074 15.8599 21.0162 15.8733 21.0209C15.8867 21.0255 15.9011 21.0257 15.9146 21.0215C17.834 20.422 19.6419 19.4902 21.262 18.2652C21.2699 18.2595 21.2765 18.2521 21.2815 18.2435C21.2864 18.2349 21.2895 18.2252 21.2905 18.2153C21.736 13.5053 20.5439 9.41286 18.1286 5.78648C18.1227 5.77469 18.1129 5.7655 18.101 5.76059ZM7.14521 15.7336C6.09212 15.7336 5.22347 14.7452 5.22347 13.533C5.22347 12.3199 6.0752 11.3324 7.14521 11.3324C8.22323 11.3324 9.08387 12.3282 9.06694 13.533C9.06694 14.7461 8.21521 15.7336 7.14521 15.7336ZM14.2504 15.7336C13.1964 15.7336 12.3286 14.7452 12.3286 13.533C12.3286 12.3199 13.1795 11.3324 14.2504 11.3324C15.3284 11.3324 16.189 12.3282 16.1721 13.533C16.1721 14.7461 15.3293 15.7336 14.2504 15.7336Z" fill="#BDBDBD"/>
</svg>
