<svg width="20" height="21" viewBox="0 0 20 21" fill="none" xmlns="http://www.w3.org/2000/svg">
    <path d="M9.77176 6.82511C7.97698 6.82511 6.51231 8.35956 6.51231 10.2398C6.51231 12.1201 7.97698 13.6546 9.77176 13.6546C11.5665 13.6546 13.0312 12.1201 13.0312 10.2398C13.0312 8.35956 11.5665 6.82511 9.77176 6.82511ZM19.5477 10.2398C19.5477 8.82578 19.5599 7.42454 19.4841 6.01305C19.4083 4.37357 19.0513 2.91853 17.907 1.71966C16.7602 0.518223 15.3737 0.146778 13.8088 0.0673659C12.459 -0.0120465 11.1215 0.00076196 9.77421 0.00076196C8.42445 0.00076196 7.08693 -0.0120465 5.73962 0.0673659C4.17469 0.146778 2.78582 0.520785 1.64146 1.71966C0.494659 2.92109 0.140104 4.37357 0.0643026 6.01305C-0.0114987 7.4271 0.000727312 8.82835 0.000727312 10.2398C0.000727312 11.6513 -0.0114987 13.0551 0.0643026 14.4666C0.140104 16.1061 0.497104 17.5611 1.64146 18.76C2.78826 19.9615 4.17469 20.3329 5.73962 20.4123C7.08937 20.4917 8.4269 20.4789 9.77421 20.4789C11.124 20.4789 12.4615 20.4917 13.8088 20.4123C15.3737 20.3329 16.7626 19.9589 17.907 18.76C19.0538 17.5586 19.4083 16.1061 19.4841 14.4666C19.5624 13.0551 19.5477 11.6539 19.5477 10.2398ZM9.77176 15.4939C6.99646 15.4939 4.75665 13.1474 4.75665 10.2398C4.75665 7.33232 6.99646 4.98581 9.77176 4.98581C12.5471 4.98581 14.7869 7.33232 14.7869 10.2398C14.7869 13.1474 12.5471 15.4939 9.77176 15.4939ZM14.9923 5.99768C14.3443 5.99768 13.821 5.44948 13.821 4.77063C13.821 4.09178 14.3443 3.54358 14.9923 3.54358C15.6403 3.54358 16.1635 4.09178 16.1635 4.77063C16.1637 4.93182 16.1336 5.09148 16.0748 5.24044C16.016 5.3894 15.9297 5.52475 15.8209 5.63874C15.7121 5.75272 15.5829 5.84309 15.4407 5.90469C15.2985 5.96628 15.1461 5.99788 14.9923 5.99768Z" fill="#BDBDBD"/>
</svg>
