<svg width="20" height="21" viewBox="0 0 20 21" fill="none" xmlns="http://www.w3.org/2000/svg">
    <path d="M19.5488 4.87454C19.0044 5.68149 18.3365 6.36937 17.5452 6.93819C17.553 7.09075 17.5569 7.26317 17.5569 7.45547C17.5569 8.52391 17.4006 9.59365 17.088 10.6647C16.7754 11.7357 16.2978 12.7609 15.6554 13.7402C15.0129 14.7195 14.2477 15.5871 13.3596 16.3429C12.4715 17.0988 11.404 17.7015 10.157 18.151C8.91005 18.6005 7.57364 18.8252 6.14779 18.8252C3.92251 18.8252 1.87325 18.2265 0 17.0292C0.332479 17.066 0.651355 17.0845 0.956627 17.0845C2.81567 17.0845 4.47609 16.5138 5.93789 15.3725C5.0711 15.3567 4.29483 15.0908 3.60907 14.5748C2.92331 14.0588 2.45138 13.3995 2.19329 12.5969C2.4484 12.6453 2.70017 12.6695 2.94863 12.6695C3.30626 12.6695 3.65817 12.623 4.00435 12.53C3.07932 12.3454 2.31193 11.8863 1.70218 11.1526C1.09245 10.419 0.787587 9.5722 0.787587 8.61231V8.56284C1.35537 8.87613 1.961 9.04278 2.60448 9.06279C2.05651 8.69872 1.62204 8.22397 1.30109 7.63854C0.980118 7.0531 0.819633 6.41955 0.819633 5.7379C0.819633 5.01898 1.0004 4.34954 1.36194 3.72956C2.36789 4.95978 3.58681 5.943 5.0187 6.67925C6.4506 7.4155 7.98677 7.82439 9.62718 7.90592C9.55722 7.61534 9.52217 7.3121 9.52204 6.99621C9.52204 5.89323 9.91371 4.95146 10.6971 4.17087C11.4804 3.39029 12.4255 3 13.5322 3C14.691 3 15.667 3.42048 16.4603 4.26144C17.3667 4.08252 18.2154 3.7589 19.0064 3.29058C18.7016 4.24632 18.1144 4.9836 17.2448 5.50244C18.0441 5.40778 18.8121 5.19848 19.5487 4.87454H19.5488Z" fill="#BDBDBD"/>
</svg>
